<?xml version="1.0" encoding="UTF-8" standalone="no"?>
<!-- Created with Inkscape (http://www.inkscape.org/) -->

<svg
   xmlns:dc="http://purl.org/dc/elements/1.1/"
   xmlns:cc="http://creativecommons.org/ns#"
   xmlns:rdf="http://www.w3.org/1999/02/22-rdf-syntax-ns#"
   xmlns:svg="http://www.w3.org/2000/svg"
   xmlns="http://www.w3.org/2000/svg"
   xmlns:sodipodi="http://sodipodi.sourceforge.net/DTD/sodipodi-0.dtd"
   xmlns:inkscape="http://www.inkscape.org/namespaces/inkscape"
   width="353.62125"
   height="71.811249"
   id="svg5858"
   version="1.1"
   inkscape:version="0.47 r22583"
   sodipodi:docname="New document 3">
  <defs
     id="defs5860">
    <inkscape:perspective
       sodipodi:type="inkscape:persp3d"
       inkscape:vp_x="0 : 526.18109 : 1"
       inkscape:vp_y="0 : 1000 : 0"
       inkscape:vp_z="744.09448 : 526.18109 : 1"
       inkscape:persp3d-origin="372.04724 : 350.78739 : 1"
       id="perspective5866" />
    <inkscape:perspective
       id="perspective5852"
       inkscape:persp3d-origin="0.5 : 0.33333333 : 1"
       inkscape:vp_z="1 : 0.5 : 1"
       inkscape:vp_y="0 : 1000 : 0"
       inkscape:vp_x="0 : 0.5 : 1"
       sodipodi:type="inkscape:persp3d" />
  </defs>
  <sodipodi:namedview
     id="base"
     pagecolor="#ffffff"
     bordercolor="#666666"
     borderopacity="1.0"
     inkscape:pageopacity="0.0"
     inkscape:pageshadow="2"
     inkscape:zoom="0.35"
     inkscape:cx="94.66777"
     inkscape:cy="-181.23723"
     inkscape:document-units="px"
     inkscape:current-layer="layer1"
     showgrid="false"
     inkscape:window-width="1280"
     inkscape:window-height="722"
     inkscape:window-x="-8"
     inkscape:window-y="20"
     inkscape:window-maximized="1" />
  <metadata
     id="metadata5863">
    <rdf:RDF>
      <cc:Work
         rdf:about="">
        <dc:format>image/svg+xml</dc:format>
        <dc:type
           rdf:resource="http://purl.org/dc/dcmitype/StillImage" />
        <dc:title></dc:title>
      </cc:Work>
    </rdf:RDF>
  </metadata>
  <g
     inkscape:label="Layer 1"
     inkscape:groupmode="layer"
     id="layer1"
     transform="translate(-280.33223,-279.3137)">
    <g
       id="g1024"
       transform="matrix(1.25,0,0,-1.25,531.25598,279.73245)">
      <path
         d="m 0,0 0,-13.691 11.015,0 0,-29.394 -20.373,0 -5.675,6.345 c 0,0 12.966,5.027 12.359,19.709 C -3.343,-1.002 -24.72,0 -24.72,0 l -101.873,0 -9.017,-19.703 -9.019,20.038 -49.098,0 0,-14.696 15.699,0 -11.357,-27.053 -11.354,0 0,-15.364 43.753,0 0,14.694 -7.682,0 6.68,14.698 9.018,-29.058 21.376,0 11.69,29.058 6.345,-15.029 -9.352,0 0,-14.363 72.481,0 0,14.027 -9.689,0 0,6.345 10.358,0 22.379,-20.708 66.796,0 0,14.029 -12.025,0 0,5.678 24.72,0 0,14.36 -24.72,0 0,9.356 32.404,0 0,-11.69 18.365,0 0,25.049 L 0,0 z m -77.496,-42.084 -7.681,0 -11.689,27.389 19.37,0 0,-27.389 z m 48.437,21.711 -27.06,0 0,5.014 27.06,0.329 c 0,0 2.67,0.335 2.67,-2.334 0,-2.675 -2.67,-3.009 -2.67,-3.009"
         style="fill:#ef4023;fill-opacity:1;fill-rule:nonzero;stroke:none"
         id="path1026" />
    </g>
  </g>
</svg>
